<svg height='100px' width='100px'  fill="#D3D3D3" xmlns:dc="http://purl.org/dc/elements/1.1/" xmlns:cc="http://creativecommons.org/ns#" xmlns:rdf="http://www.w3.org/1999/02/22-rdf-syntax-ns#" xmlns:svg="http://www.w3.org/2000/svg" xmlns="http://www.w3.org/2000/svg" xmlns:sodipodi="http://sodipodi.sourceforge.net/DTD/sodipodi-0.dtd" xmlns:inkscape="http://www.inkscape.org/namespaces/inkscape" version="1.1" x="0px" y="0px" viewBox="0 0 100 100"><g transform="translate(0,-952.36218)"><path style="text-indent:0;text-transform:none;direction:ltr;block-progression:tb;baseline-shift:baseline;color:#000000;enable-background:accumulate;" d="m 50,970.36215 c -6.6514,0 -13.3327,2.52026 -18.4062,7.59376 -4.1108,4.1108 -6.5008,9.2789 -7.2813,14.625 -10.3229,1.3215 -18.3124998,10.10729 -18.3124998,20.78119 0,11.5861 9.4138998,21.0001 20.9999998,21.0001 l 49,0 c 9.9547,0 18,-8.0453 18,-18.0001 0,-9.9547 -8.0453,-17.99999 -18,-17.99999 l -0.1875,0 c 0.5641,-7.3113 -1.8514,-14.8202 -7.4375,-20.4062 -5.0719,-5.072 -11.7236,-7.59376 -18.375,-7.59376 z m 0,2 c 6.1448,0 12.2466,2.30906 16.9375,6.99996 5.4226,5.4227 7.721,12.8148 6.875,19.875 a 1.0001,1.0001 0 0 0 1,1.12499 l 1.1875,0 c 8.8813,0 16,7.1187 16,16 0,8.8814 -7.1187,16.0001 -16,16.0001 l -49,0 c -10.5051,0 -18.9999998,-8.4949 -18.9999998,-19.0001 0,-9.9187 7.5687998,-18.05849 17.2499998,-18.93749 a 1.0001,1.0001 0 0 0 0.9062,-0.875 c 0.6021,-5.1854 2.8943,-10.2067 6.875,-14.1875 4.6896,-4.6895 10.824,-6.99996 16.9688,-6.99996 z m -0.094,21.99996 c -0.236,0.02 -0.4408,0.1273 -0.5937,0.25 l -11,9.99999 c -0.3882,0.3591 -0.4242,1.0515 -0.062,1.4375 0.3614,0.386 1.0537,0.3947 1.4375,0.031 L 49,997.61191 49,1021.362 c 0,0.5523 0.4477,1 1,1 0.5524,0 1,-0.4477 1,-1 l 0,-23.75009 9.3125,8.46879 c 0.3838,0.3637 1.076,0.355 1.4375,-0.031 0.3614,-0.386 0.3488,-1.0238 -0.062,-1.4375 l -11,-9.99999 c -0.2782,-0.2046 -0.5452,-0.2705 -0.7813,-0.25 z" fill="#D3D3D3" fill-opacity="1" stroke="none" marker="none" visibility="visible" display="inline" overflow="visible"></path></g></svg>